# xmcd CD database file
# Copyright (C) 1993-1998 Ti Kan
# 
# Track frame offsets:
#     150
#     18317
#     36079
#     57655
#     72312
#     92900
#     115067
#     132261
#     149870
#     175655
#     193718
#     207491
#     230561
#     246154
# 
# Disc length: 3510 seconds
# 
# Revision: 1
# Processed by: cddbd v1.4b41PL1 Copyright (c) Steve Scherf et al.
# Submitted via: DiscPlay 4.0.4
# 
DISCID=d60db40e
DTITLE=Elton John - The Very Best of Elton John
DYEAR=1900
DGENRE=
TTITLE0=Your Song
TTITLE1=Crocodile Rock
TTITLE2=I Guess that's why thy call it the Blues
TTITLE3=Part Time Love
TTITLE4=Don't go Breaking my Heart
TTITLE5=Saturday Night's Alright for Fighting
TTITLE6=Sorry seems to be the Hardest Word
TTITLE7=Daniel
TTITLE8=Nikita
TTITLE9=I Don't wanna go on with You Like That
TTITLE10=I'm still Standing
TTITLE11=Sacrifice
TTITLE12=Blue Eyes
TTITLE13=Candle in the Wind
EXTD=
EXTT0=
EXTT1=
EXTT2=
EXTT3=
EXTT4=
EXTT5=
EXTT6=
EXTT7=
EXTT8=
EXTT9=
EXTT10=
EXTT11=
EXTT12=
EXTT13=
PLAYORDER=
